<svg xmlns="http://www.w3.org/2000/svg" viewBox="0 0 300 380" width="300" height="380">
  <defs>
    <linearGradient id="g4" x1="0%" y1="0%" x2="100%" y2="100%">
      <stop offset="0%" stop-color="#1C1917"/>
      <stop offset="100%" stop-color="#292524"/>
    </linearGradient>
    <clipPath id="shirtClip">
      <path d="M75 85 L28 122 L50 145 L75 127 L75 295 L225 295 L225 127 L250 145 L272 122 L225 85 Q207 72 190 77 Q168 92 150 92 Q132 92 110 77 Q93 72 75 85Z"/>
    </clipPath>
  </defs>
  <path d="M75 85 L28 122 L50 145 L75 127 L75 295 L225 295 L225 127 L250 145 L272 122 L225 85 Q207 72 190 77 Q168 92 150 92 Q132 92 110 77 Q93 72 75 85Z" fill="url(#g4)"/>
  <!-- Photo placeholder clipped to shirt -->
  <g clip-path="url(#shirtClip)">
    <rect x="105" y="120" width="90" height="110" rx="8" fill="rgba(255,255,255,0.07)" stroke="rgba(255,255,255,0.15)" stroke-width="1"/>
    <!-- Stylized person silhouette -->
    <circle cx="150" cy="145" r="16" fill="rgba(255,255,255,0.18)"/>
    <path d="M120 210 Q130 168 150 165 Q170 168 180 210" fill="rgba(255,255,255,0.12)"/>
    <!-- photo frame corner marks -->
    <path d="M108 123 L108 132 M108 123 L117 123" stroke="#F59E0B" stroke-width="1.5" fill="none"/>
    <path d="M192 123 L192 132 M192 123 L183 123" stroke="#F59E0B" stroke-width="1.5" fill="none"/>
    <path d="M108 227 L108 218 M108 227 L117 227" stroke="#F59E0B" stroke-width="1.5" fill="none"/>
    <path d="M192 227 L192 218 M192 227 L183 227" stroke="#F59E0B" stroke-width="1.5" fill="none"/>
  </g>
  <path d="M110 77 Q132 100 150 100 Q168 100 190 77" fill="none" stroke="#78716C" stroke-width="2.5" stroke-linecap="round"/>
  <!-- Name tag at bottom -->
  <rect x="110" y="252" width="80" height="22" rx="4" fill="rgba(245,158,11,0.2)" stroke="#F59E0B" stroke-width="1"/>
  <text x="150" y="267" text-anchor="middle" font-family="Inter,Arial,sans-serif" font-size="10" font-weight="700" fill="#F59E0B">SEU NOME AQUI</text>
  <text x="150" y="330" text-anchor="middle" font-family="Inter,Arial,sans-serif" font-size="11" font-weight="700" fill="rgba(255,255,255,0.35)" letter-spacing="2">ESTAMPA COM FOTO</text>
</svg>
