<svg xmlns="http://www.w3.org/2000/svg" viewBox="0 0 300 380" width="300" height="380">
  <defs>
    <linearGradient id="g6" x1="0%" y1="0%" x2="100%" y2="100%">
      <stop offset="0%" stop-color="#0C0A1A"/>
      <stop offset="100%" stop-color="#1A0533"/>
    </linearGradient>
    <clipPath id="sc6">
      <path d="M75 85 L28 122 L50 145 L75 127 L75 295 L225 295 L225 127 L250 145 L272 122 L225 85 Q207 72 190 77 Q168 92 150 92 Q132 92 110 77 Q93 72 75 85Z"/>
    </clipPath>
  </defs>
  <path d="M75 85 L28 122 L50 145 L75 127 L75 295 L225 295 L225 127 L250 145 L272 122 L225 85 Q207 72 190 77 Q168 92 150 92 Q132 92 110 77 Q93 72 75 85Z" fill="url(#g6)"/>
  <g clip-path="url(#sc6)">
    <!-- Abstract splashes -->
    <ellipse cx="130" cy="160" rx="35" ry="22" fill="#7C3AED" opacity="0.55" transform="rotate(-20 130 160)"/>
    <ellipse cx="175" cy="185" rx="30" ry="18" fill="#F59E0B" opacity="0.45" transform="rotate(15 175 185)"/>
    <ellipse cx="145" cy="215" rx="40" ry="16" fill="#EC4899" opacity="0.4" transform="rotate(-5 145 215)"/>
    <ellipse cx="160" cy="150" rx="20" ry="30" fill="#06B6D4" opacity="0.35" transform="rotate(30 160 150)"/>
    <!-- ink dots -->
    <circle cx="115" cy="195" r="8"  fill="#A78BFA" opacity="0.5"/>
    <circle cx="190" cy="165" r="6"  fill="#FCD34D" opacity="0.5"/>
    <circle cx="125" cy="240" r="5"  fill="#F472B6" opacity="0.45"/>
    <circle cx="178" cy="240" r="7"  fill="#34D399" opacity="0.4"/>
    <!-- splatter lines -->
    <path d="M140 170 Q165 155 185 175" stroke="#C084FC" stroke-width="2" fill="none" opacity="0.4" stroke-linecap="round"/>
    <path d="M115 210 Q145 200 160 220" stroke="#FDE68A" stroke-width="1.5" fill="none" opacity="0.4" stroke-linecap="round"/>
  </g>
  <path d="M110 77 Q132 100 150 100 Q168 100 190 77" fill="none" stroke="#7C3AED" stroke-width="2.5" stroke-linecap="round"/>
  <text x="150" y="330" text-anchor="middle" font-family="Inter,Arial,sans-serif" font-size="11" font-weight="700" fill="rgba(255,255,255,0.35)" letter-spacing="2">ARTE ABSTRATA</text>
</svg>
