<svg xmlns="http://www.w3.org/2000/svg" viewBox="0 0 300 380" width="300" height="380">
  <defs>
    <linearGradient id="g3" x1="0%" y1="0%" x2="100%" y2="100%">
      <stop offset="0%" stop-color="#1E3A5F"/>
      <stop offset="100%" stop-color="#0F2845"/>
    </linearGradient>
  </defs>
  <path d="M75 85 L28 122 L50 145 L75 127 L75 295 L225 295 L225 127 L250 145 L272 122 L225 85 Q207 72 190 77 Q168 92 150 92 Q132 92 110 77 Q93 72 75 85Z" fill="url(#g3)"/>
  <path d="M110 77 Q132 100 150 100 Q168 100 190 77" fill="none" stroke="#93C5FD" stroke-width="2.5" stroke-linecap="round"/>
  <!-- Stripes -->
  <rect x="75" y="150" width="150" height="6"  fill="#BFDBFE" opacity="0.15"/>
  <rect x="75" y="164" width="150" height="6"  fill="#BFDBFE" opacity="0.15"/>
  <rect x="75" y="178" width="150" height="6"  fill="#BFDBFE" opacity="0.15"/>
  <!-- Team badge circle -->
  <circle cx="150" cy="175" r="32" fill="none" stroke="#93C5FD" stroke-width="2" opacity="0.6"/>
  <circle cx="150" cy="175" r="25" fill="rgba(147,197,253,0.08)"/>
  <!-- Star / shield icon -->
  <polygon points="150,152 155,167 171,167 158,176 163,192 150,183 137,192 142,176 129,167 145,167" fill="#F59E0B" opacity="0.9"/>
  <!-- Number -->
  <text x="150" y="245" text-anchor="middle" font-family="Inter,Arial,sans-serif" font-size="32" font-weight="900" fill="rgba(255,255,255,0.15)">10</text>
  <text x="150" y="330" text-anchor="middle" font-family="Inter,Arial,sans-serif" font-size="11" font-weight="700" fill="rgba(255,255,255,0.35)" letter-spacing="2">UNIFORME TIME</text>
</svg>
