<svg xmlns="http://www.w3.org/2000/svg" viewBox="0 0 300 380" width="300" height="380">
  <defs>
    <linearGradient id="g1" x1="0%" y1="0%" x2="100%" y2="100%">
      <stop offset="0%" stop-color="#1E1B4B"/>
      <stop offset="100%" stop-color="#312E81"/>
    </linearGradient>
  </defs>
  <!-- Shirt shape -->
  <path d="M75 85 L28 122 L50 145 L75 127 L75 295 L225 295 L225 127 L250 145 L272 122 L225 85 Q207 72 190 77 Q168 92 150 92 Q132 92 110 77 Q93 72 75 85Z" fill="url(#g1)"/>
  <!-- Collar -->
  <path d="M110 77 Q132 100 150 100 Q168 100 190 77" fill="none" stroke="#6366F1" stroke-width="2.5" stroke-linecap="round"/>
  <!-- Geometric pattern – triangles -->
  <polygon points="150,130 120,185 180,185" fill="none" stroke="#818CF8" stroke-width="1.5" opacity="0.7"/>
  <polygon points="150,145 128,175 172,175" fill="#4F46E5" opacity="0.5"/>
  <polygon points="150,120 108,190 192,190" fill="none" stroke="#C7D2FE" stroke-width="1" opacity="0.4"/>
  <!-- diamond -->
  <polygon points="150,205 130,225 150,245 170,225" fill="none" stroke="#818CF8" stroke-width="1.5" opacity="0.6"/>
  <polygon points="150,213 137,225 150,237 163,225" fill="#6366F1" opacity="0.4"/>
  <!-- dots grid -->
  <circle cx="120" cy="265" r="3" fill="#818CF8" opacity="0.5"/>
  <circle cx="135" cy="265" r="3" fill="#818CF8" opacity="0.5"/>
  <circle cx="150" cy="265" r="3" fill="#818CF8" opacity="0.5"/>
  <circle cx="165" cy="265" r="3" fill="#818CF8" opacity="0.5"/>
  <circle cx="180" cy="265" r="3" fill="#818CF8" opacity="0.5"/>
  <!-- label -->
  <text x="150" y="330" text-anchor="middle" font-family="Inter,Arial,sans-serif" font-size="11" font-weight="700" fill="rgba(255,255,255,0.35)" letter-spacing="2">GEOMÉTRICA</text>
</svg>
