<svg xmlns="http://www.w3.org/2000/svg" viewBox="0 0 320 360" width="320" height="360">
  <defs>
    <linearGradient id="hg" x1="0%" y1="0%" x2="100%" y2="100%">
      <stop offset="0%" stop-color="#1A1600"/>
      <stop offset="100%" stop-color="#0A0A0A"/>
    </linearGradient>
    <linearGradient id="gold" x1="0%" y1="0%" x2="100%" y2="100%">
      <stop offset="0%" stop-color="#F0C040"/>
      <stop offset="100%" stop-color="#C9A84C"/>
    </linearGradient>
    <filter id="sh">
      <feDropShadow dx="0" dy="8" stdDeviation="14" flood-color="#C9A84C" flood-opacity="0.45"/>
    </filter>
  </defs>
  <!-- Body -->
  <path d="M80 90 L30 130 L55 155 L80 135 L80 300 L240 300 L240 135 L265 155 L290 130 L240 90 Q220 75 200 80 Q180 95 160 95 Q140 95 120 80 Q100 75 80 90Z" fill="url(#hg)" filter="url(#sh)" stroke="rgba(201,168,76,0.3)" stroke-width="1"/>
  <!-- Collar -->
  <path d="M120 80 Q140 105 160 105 Q180 105 200 80" fill="none" stroke="url(#gold)" stroke-width="2.5" stroke-linecap="round"/>
  <!-- Gold border trim -->
  <path d="M80 90 L30 130 L55 155 L80 135" fill="none" stroke="rgba(201,168,76,0.4)" stroke-width="1.5"/>
  <path d="M240 90 L290 130 L265 155 L240 135" fill="none" stroke="rgba(201,168,76,0.4)" stroke-width="1.5"/>
  <!-- Estampa – VL badge dourado -->
  <rect x="125" y="145" width="70" height="70" rx="12" fill="rgba(201,168,76,0.08)" stroke="rgba(201,168,76,0.35)" stroke-width="1.5"/>
  <text x="160" y="193" text-anchor="middle" font-family="Inter,Arial,sans-serif" font-size="30" font-weight="900" fill="url(#gold)">VL</text>
  <!-- Gold horizontal lines -->
  <line x1="80" y1="228" x2="240" y2="228" stroke="rgba(201,168,76,0.12)" stroke-width="1"/>
  <line x1="80" y1="260" x2="240" y2="260" stroke="rgba(201,168,76,0.12)" stroke-width="1"/>
  <!-- Shine -->
  <path d="M100 102 Q130 92 160 94" stroke="rgba(201,168,76,0.25)" stroke-width="2" fill="none" stroke-linecap="round"/>
</svg>
